<svg width="14" height="14" viewBox="0 0 14 14" fill="none" xmlns="http://www.w3.org/2000/svg">
<path opacity="0.5" d="M6.86841 0C3.07521 0 0 3.07521 0 6.86841C0 10.6616 3.07521 13.7368 6.86841 13.7368C10.6616 13.7368 13.7368 10.6616 13.7368 6.86841C13.7368 3.07521 10.6616 0 6.86841 0ZM7.65324 6.41051C8.98754 6.41051 10.0737 7.43711 10.0737 8.69998C10.0737 9.96285 8.98754 10.9895 7.65324 10.9895H7.3263V11.4473C7.3263 11.7002 7.1213 11.9052 6.86841 11.9052C6.61552 11.9052 6.41051 11.7002 6.41051 11.4473V10.9895H6.08358C4.74928 10.9895 3.66315 9.96285 3.66315 8.69998C3.66315 8.4471 3.86816 8.24209 4.12105 8.24209C4.37393 8.24209 4.57894 8.4471 4.57894 8.69998C4.57894 9.45734 5.25387 10.0737 6.08358 10.0737H6.41051V7.3263H6.08358C4.74928 7.3263 3.66315 6.2997 3.66315 5.03683C3.66315 3.77396 4.74928 2.74736 6.08358 2.74736H6.41051V2.28947C6.41051 2.03658 6.61552 1.83158 6.86841 1.83158C7.1213 1.83158 7.3263 2.03658 7.3263 2.28947V2.74736H7.65324C8.98754 2.74736 10.0737 3.77396 10.0737 5.03683C10.0737 5.28972 9.86866 5.49473 9.61577 5.49473C9.36288 5.49473 9.15788 5.28972 9.15788 5.03683C9.15788 4.27948 8.48294 3.66315 7.65324 3.66315H7.3263V6.41051H7.65324ZM4.57894 5.03683C4.57894 5.79419 5.25387 6.41051 6.08358 6.41051H6.41051V3.66315H6.08358C5.25387 3.66315 4.57894 4.27948 4.57894 5.03683ZM7.65324 10.0737C8.48294 10.0737 9.15788 9.45734 9.15788 8.69998C9.15788 7.94263 8.48294 7.3263 7.65324 7.3263H7.3263V10.0737H7.65324Z" fill="white"/>
</svg>
