<svg width="40" height="40" viewBox="0 0 40 40" fill="none" xmlns="http://www.w3.org/2000/svg">
<path d="M35 20C35 17.0333 34.1203 14.1332 32.4721 11.6665C30.8238 9.19972 28.4812 7.27713 25.7403 6.14181C22.9994 5.0065 19.9834 4.70945 17.0737 5.28823C14.1639 5.86701 11.4912 7.29562 9.3934 9.3934C7.29562 11.4912 5.86701 14.1639 5.28823 17.0737C4.70945 19.9834 5.0065 22.9994 6.14181 25.7403C7.27713 28.4812 9.19972 30.8238 11.6665 32.4721C14.1332 34.1203 17.0333 35 20 35M6.00001 15H34M6.00001 25H19.1667" stroke="#D5C06C" stroke-width="2" stroke-linecap="round" stroke-linejoin="round"/>
<path d="M19.1664 5C16.3587 9.49935 14.8701 14.6964 14.8701 20C14.8701 25.3036 16.3587 30.5006 19.1664 35M20.8331 5C23.5273 9.31677 25.0091 14.2794 25.1231 19.3667M33.6664 33.6667L36.6664 36.6667M24.9998 30C24.9998 31.3261 25.5266 32.5979 26.4642 33.5355C27.4019 34.4732 28.6737 35 29.9998 35C31.3259 35 32.5976 34.4732 33.5353 33.5355C34.473 32.5979 34.9998 31.3261 34.9998 30C34.9998 28.6739 34.473 27.4021 33.5353 26.4645C32.5976 25.5268 31.3259 25 29.9998 25C28.6737 25 27.4019 25.5268 26.4642 26.4645C25.5266 27.4021 24.9998 28.6739 24.9998 30Z" stroke="#D5C06C" stroke-width="2" stroke-linecap="round" stroke-linejoin="round"/>
</svg>
